{"title":"Teresa Villaverde - Transe (2006)","uid":5785115,"size":1572259208,"categoryP":"video","categoryS":"movies","magnet":"?xt=urn:btih:4b56df22aabd566009cf16c2ef3eb31cb3e8092e&amp;dn=Teresa+Villaverde+-+Transe+%282006%29&amp;tr=udp%3A%2F%2Ftracker.openbittorrent.com%3A80&amp;tr=udp%3A%2F%2Fopen.demonii.com%3A1337&amp;tr=udp%3A%2F%2Ftracker.coppersurfer.tk%3A6969&amp;tr=udp%3A%2F%2Fexodus.desync.com%3A6969","seeders":1,"leechers":0,"uploader":"mfccorrea","files":3,"time":1282580391,"description":"Portuguese filmmaker Teresa Villaverde  turns her attentions to the topic of human trafficking in modern-day Europe with this tale of an optimistic Russian ÃƒÂ©migrÃƒÂ© who is forced into prostitution after leaving St. Petersburg to seek out a better life in Germany. Sonia (Ana Moreira) is a dreamer in her early twenties who is looking to escape the bleak poverty of St. Petersburg in hopes of improving her unfortunate lot in life. Upon finding illegal work at a German car factory, it appears as if Sonia's luck may be taking a turn for the better. When the factory is supposedly raided by police looking for illegal workers and a fellow Russian implores the Sonia to hide in the trunk of a car, the panicked girl's once bright future begins to grow considerably dimmer. Subsequently smuggled across Europe, Sonia is used as a sex slave in Germany before being transported to Italy to serve as a human plaything for the simple minded son of a powerful millionaire. Now trapped in an opulent mansion prison with no one to turn to and no place to run, Sonia soon becomes obsessed with the prospect of escaping her outwardly lavish hell on Earth. \n\n\n   General\n      Complete name : Transe.avi\n      Format : AVI\n      Format/Info : Audio Video Interleave\n      File size : 1.46 GiB\n      Duration : 2h 1mn\n      Overall bit rate : 1 730 Kbps\n      Writing application : FairUse Wizard - http://fairusewizard.com\n      Writing library : The best and REALLY easy backup tool\n   Video #0\n      ID : 0\n      Format : MPEG-4 Visual\n      Format profile : AdvancedSimple@L5\n      Format settings, BVOP : Yes\n      Format settings, QPel : No\n      Format settings, GMC : No warppoints\n      Format settings, Matrix : Default (MPEG)\n      Muxing mode : Packed bitstream\n      Codec ID : XVID\n      Codec ID/Hint : XviD\n      Duration : 2h 1mn\n      Bit rate : 1 528 Kbps\n      Width : 704 pixels\n      Height : 416 pixels\n      Display aspect ratio : 1.692\n      Frame rate : 25.000 fps\n      Resolution : 24 bits\n      Colorimetry : 4:2:0\n      Scan type : Progressive\n      Bits/(Pixel*Frame) : 0.209\n      Stream size : 1.29 GiB (88%)\n      Writing library : XviD 1.2.0.dev47 (UTC 2006-11-01)\n   Audio #1\n      ID : 1\n      Format : AC-3\n      Format/Info : Audio Coding 3\n      Codec ID : 2000\n      Duration : 2h 1mn\n      Bit rate mode : Constant\n      Bit rate : 192 Kbps\n      Channel(s) : 2 channels\n      Channel positions : L R\n      Sampling rate : 48.0 KHz\n      Stream size : 166 MiB (11%)\n      Alignment : Split accross interleaves\n      Interleave, duration : 40 ms (1.00 video frame)\n      Interleave, preload duration : 500 ms\n &lt;a href=&quot;\nhttp://www.imdb.com/title/tt0460034/&quot; rel=&quot;nofollow&quot; target=&quot;_NEW&quot;&gt;\nhttp://www.imdb.com/title/tt0460034/&lt;/a&gt;\n\nPortuguese, Italian, German and Russian audio; English and Portuguese subtitles\n\nTeresa Villaverde - Transe (2006)","torrent":{"xt":"urn:btih:4b56df22aabd566009cf16c2ef3eb31cb3e8092e","amp;dn":"Teresa+Villaverde+-+Transe+%282006%29","amp;tr":["udp%3A%2F%2Ftracker.openbittorrent.com%3A80","udp%3A%2F%2Fopen.demonii.com%3A1337","udp%3A%2F%2Ftracker.coppersurfer.tk%3A6969","udp%3A%2F%2Fexodus.desync.com%3A6969"],"infoHash":"4b56df22aabd566009cf16c2ef3eb31cb3e8092e","infoHashBuffer":{"type":"Buffer","data":[75,86,223,34,170,189,86,96,9,207,22,194,239,62,179,28,179,232,9,46]},"announce":[],"urlList":[]}}